<svg width="528" height="178" viewBox="0 0 528 178" fill="none" xmlns="http://www.w3.org/2000/svg">
<path d="M502.279 59.0841L509.121 59.16C509.742 59.1498 509.13 59.0841 509.624 59.0841C509.624 59.0841 510.083 59.1614 510.16 59.1614H511.843L513.358 59.3005L515.209 59.4705H515.362L515.822 59.5478C516.128 59.625 515.822 59.4705 516.204 59.7023L518.193 60.4751C518.27 60.4751 518.346 60.5524 518.346 60.5524L520.642 61.9435L520.718 62.0208L520.795 62.0981L522.478 63.4119L522.554 63.4891L525.232 66.8895C526.227 68.2806 525.844 68.2033 526.074 68.5124C526.227 68.7443 526.227 67.8169 526.456 68.9761C526.533 69.2853 526.38 69.3625 526.456 69.749C526.533 70.2899 526.915 69.9808 526.992 70.5991C527.222 73.4585 527.298 69.8262 527.451 72.222L527.528 78.1727V78.4045V81.0321V81.2639V82.655H527.681V85.5144V133.12H527.528V135.593V135.748V135.979V136.211V136.598V136.829V137.061V137.293V137.448V138.839V138.993L526.609 144.326C526.56 144.388 526.524 144.423 526.5 144.439C526.517 144.486 526.533 144.588 526.533 144.789C526.533 145.312 526.319 145.691 526.028 146.204L525.997 146.258C525.997 146.335 525.921 146.412 525.921 146.412L521.636 151.745C519.953 152.75 520.183 152.827 518.193 153.754L516.434 154.45L516.357 154.527L515.209 154.759C514.98 154.913 515.822 154.836 514.521 154.991L423.168 155.223C420.49 155.223 400.138 155.609 397.69 154.913L397.46 154.836C397.231 154.759 397.231 154.759 397.001 154.759L395.548 154.218C395.317 154.218 395.239 154.24 395.193 154.246C395.119 154.258 395.135 154.227 394.706 153.986L392.87 152.981C391.034 151.127 392.717 153.136 391.187 151.899C390.115 150.972 389.274 149.658 388.279 148.731L386.519 145.794C386.366 145.099 386.672 146.181 386.519 145.408L385.907 143.553C385.525 142.703 385.448 141.698 385.448 140.694C385.448 139.766 385.372 140.694 385.142 139.998C384.836 139.071 385.142 102.826 385.142 100.507V77.7862C385.142 72.9948 384.913 66.8895 385.142 62.5618C385.219 61.248 384.836 58.8522 385.372 58.234C385.42 58.1774 385.457 58.137 385.485 58.1091C385.456 58.0753 385.453 57.8933 385.525 57.3839L385.601 56.8429V56.4565C385.601 55.22 385.601 55.761 385.984 54.7563L388.126 49.9648C388.356 49.733 388.356 49.8103 388.356 49.8103L388.432 49.733L388.509 49.6557L388.585 49.5784C389.58 48.3419 390.574 47.1054 392.028 46.2553L392.946 45.7143L393.023 45.6371L393.329 45.3279L393.405 45.2507L397.613 43.705C397.69 43.705 397.843 43.6277 397.919 43.6277L398.685 43.4732C398.685 43.4732 398.838 43.3959 398.914 43.3959C399.045 43.3681 399.146 43.346 399.222 43.3285C399.976 43.1563 398.339 43.4439 399.222 43.3285C399.245 43.3255 399.27 43.3222 399.297 43.3186C401.439 43.0095 407.56 43.3186 410.161 43.3186C410.926 43.3186 411.462 42.8549 411.615 43.705C411.921 45.0961 411.615 48.9602 411.615 50.5058C411.615 51.7423 411.997 53.7516 411.156 53.7516H411.079H408.248H406.489C404.882 53.9835 403.122 53.5971 401.745 54.9109L401.668 54.9881L401.592 55.0654C401.286 55.4518 401.286 56.1474 401.362 56.7656C401.439 57.3066 401.362 57.0748 401.821 57.7703L402.663 58.5431C403.505 59.2386 402.969 59.0068 403.658 59.0841H410.085H410.544C440.918 59.1614 471.905 60.0115 502.279 59.0841Z" fill="#0072B1"/>
<path d="M418.301 53.7046C417.975 53.7089 417.664 53.6669 417.353 53.4425V53.3652C417.601 53.0267 417.768 52.8424 417.877 52.7572C417.856 52.6771 417.812 52.5738 417.812 52.5151L417.965 51.665C418.807 43.7823 420.643 20.3659 424.468 14.9562C424.928 14.338 425.387 14.1061 425.999 13.797L427.376 12.7923L427.452 12.7151L429.365 11.9422C429.442 11.865 429.518 11.865 429.518 11.865L429.748 11.7877C430.819 11.4013 431.66 11.6331 432.808 11.4013C432.885 11.324 432.961 11.324 432.961 11.324C432.961 11.324 433.114 11.2467 433.191 11.2467C434.338 11.2467 433.42 12.5605 433.191 13.1787L432.885 14.0288C432.808 14.1061 432.808 14.1834 432.808 14.1834L432.196 16.1927C432.119 16.6564 432.349 16.8883 431.966 17.2747C431.887 17.3678 431.838 17.4174 431.809 17.4385C431.805 17.4464 431.801 17.4539 431.797 17.461C431.807 17.4953 431.813 17.5576 431.813 17.6611C431.813 17.6875 431.813 17.7135 431.813 17.7391C431.791 18.9111 431.276 19.2265 431.201 20.1341C431.125 21.4479 430.742 21.0615 430.742 21.8343C430.742 22.9162 430.436 22.6844 430.283 24.23C430.13 25.312 429.748 24.5392 429.748 25.8529L429.059 28.1714C428.981 28.2659 428.929 28.3059 428.894 28.3161C428.901 28.3688 428.906 28.4465 428.906 28.5578L428.83 29.3306C428.6 30.799 428.37 30.258 428.294 31.5718C428.217 32.9629 428.294 31.8809 427.988 32.19L427.682 34.1221C427.223 35.0495 427.376 34.0448 427.299 34.9722C427.146 37.2134 426.84 35.6677 426.84 36.8269L426.611 38.0635C426.534 38.1407 426.534 38.218 426.534 38.218C426.458 38.2953 426.458 38.3726 426.458 38.3726C426.381 38.4499 426.381 38.5271 426.381 38.5271L425.922 40.1501C425.693 40.6138 425.846 41.232 425.616 41.6957C425.157 42.6231 425.54 42.4685 425.31 43.3186L424.851 44.1687C424.775 44.4006 424.851 44.6324 424.775 44.9415L424.315 46.2553C424.239 46.5644 424.545 46.4099 424.086 46.9508C424.009 47.0418 423.96 47.0913 423.93 47.1132C423.928 47.1216 423.925 47.1296 423.922 47.1372C423.929 47.1714 423.933 47.2338 423.933 47.3373L423.321 49.8103C423.168 51.5105 422.938 50.5831 422.862 51.2786L422.785 52.5151C422.709 52.5924 422.709 52.6697 422.709 52.6697C422.696 52.7333 422.681 52.8012 422.663 52.8705C422.569 53.2217 422.378 53.6098 421.867 53.6744H420.26H419.266H419.036C418.78 53.6744 418.536 53.7015 418.301 53.7046Z" fill="#0072B1"/>
<path d="M477.566 39.0681C477.631 39.0034 477.855 38.7221 478.241 39.0401L478.408 38.759C479.173 38.218 480.55 38.9136 481.315 38.9908H481.468L482.754 39.2072L484.682 39.5318H484.835L486.059 39.9182C486.136 39.9182 486.212 39.9955 486.212 39.9955C486.289 40.0728 486.365 40.0728 486.365 40.0728L491.109 42.3912L491.185 42.4685L491.262 42.5458L491.415 42.6231L491.491 42.7004L493.787 44.5551C493.863 44.5551 493.94 44.6324 493.94 44.6324L495.546 46.2553C495.546 46.3326 495.623 46.4099 495.623 46.4099L495.776 46.5644L495.852 46.6417L496.464 47.6464C497.918 49.2693 497.306 49.1147 497.612 49.5011C497.861 49.8607 498.044 50.0865 498.184 50.3107C498.345 50.5684 498.448 50.8241 498.53 51.2786C498.607 51.9742 498.454 50.9695 498.913 51.8196C499.066 52.0514 498.913 52.3606 498.989 52.747C499.066 53.2107 499.372 53.4425 499.142 53.6744C498.948 53.9366 497.486 53.6983 496.581 53.7143C496.419 53.7172 496.274 53.7282 496.158 53.7516C495.087 53.9835 493.787 53.7516 492.715 53.6744L492.652 53.6872L491.95 53.8289C491.262 53.9835 490.879 53.6744 490.344 53.7516L483.84 53.9062C483.84 53.9062 483.458 53.8289 483.381 53.8289H479.326C478.791 53.7516 479.25 53.7516 478.867 53.7516C478.791 53.7516 478.561 53.8289 478.485 53.8289L476.266 53.9062C475.219 54.0573 474.098 53.6914 473.048 53.7471C473.024 53.7484 473 53.7499 472.976 53.7516L472.211 53.9062C471.905 53.9835 471.981 53.9835 471.752 53.9062H468.691H466.702L464.636 53.8289C463.551 54.0225 463.744 53.4082 463.126 53.6944C463.004 53.7511 462.849 53.843 462.647 53.9835C462.724 53.0561 462.724 53.2879 462.724 52.6697C462.8 51.0468 463.03 50.8922 463.336 49.3466L464.254 47.1054C464.33 46.8736 464.254 46.9508 464.407 46.719L465.631 45.0961L465.707 45.0188L465.784 44.9415L466.32 44.4006L466.396 44.3233L466.626 44.0914L466.702 44.0141L468.768 42.1594C469.15 41.8503 469.38 41.6957 469.609 41.5412L469.609 41.5411C469.992 41.3093 469.609 41.4638 470.145 41.3093L471.063 40.691C471.063 40.691 471.216 40.6138 471.293 40.6138L472.899 40.0728C473.358 39.9182 472.746 40.1501 473.358 39.9182L475.73 39.2227C475.815 39.2056 475.877 39.1961 475.928 39.1908C476.074 39.1756 476.132 39.1945 476.368 39.1709C476.424 39.1652 476.491 39.1571 476.572 39.1454L477.566 39.0681Z" fill="#0072B1"/>
<path d="M434.644 53.2107C433.573 54.6017 433.879 53.2879 433.344 53.3652V53.2879C432.808 53.3652 433.803 53.6744 431.584 53.5198L429.059 52.9788L429.824 50.9695C429.901 50.9695 429.977 50.8922 429.977 50.8922V50.274C429.977 50.0421 429.977 48.8829 430.283 48.5738C430.372 48.4846 430.444 48.415 430.503 48.3621C430.506 48.3555 430.509 48.3488 430.513 48.3419C430.589 48.1874 430.513 47.8782 430.513 47.5691C430.589 46.4099 430.742 47.1827 430.895 46.9508C430.972 46.7963 430.972 47.0281 430.972 46.4872L431.796 43.2232L432.79 39.2818L432.961 38.6044C432.961 37.9089 433.267 37.3679 433.42 36.7497L433.573 36.3633C433.705 36.1808 433.776 36.098 433.81 36.0737C433.805 36.0097 433.803 35.9271 433.803 35.8223L434.032 33.9675C434.262 33.6584 434.185 33.8902 434.262 33.813C434.568 33.5811 434.491 34.5858 434.491 33.1174V32.5765C434.568 32.2673 434.491 32.6537 434.644 32.19C434.95 31.2627 434.874 31.5718 434.95 30.9535C435.027 30.1034 434.874 30.8763 435.256 30.1034C435.562 29.5625 435.256 29.1761 435.486 28.6351C435.493 28.5972 435.498 28.5682 435.5 28.5464C435.517 28.3986 435.434 28.5803 435.5 28.5464C435.524 28.5343 435.566 28.4948 435.639 28.4032C435.868 28.0941 435.945 27.1667 436.098 26.6258C436.328 25.9302 436.328 24.6937 436.634 24.3846C436.722 24.2954 436.794 24.2259 436.853 24.1729C436.856 24.1663 436.86 24.1596 436.863 24.1527C436.94 23.9982 436.863 23.6891 436.863 23.3799C436.94 22.6071 437.322 22.3753 437.322 21.5252C437.399 20.4432 437.858 20.5978 437.858 19.6704C437.858 18.8203 438.164 18.9749 438.317 18.2021L438.776 15.4972C438.929 14.6471 438.929 15.4199 439.235 14.4925L439.694 13.4106C439.924 13.256 439.694 12.7151 439.924 12.1741L440 12.0968L440.612 11.5558C440.712 11.4715 440.769 11.4387 440.798 11.4333C440.809 11.4043 440.823 11.3683 440.842 11.324C440.918 11.324 440.918 11.0149 440.918 10.9376C441.071 10.242 443.06 8.15543 443.902 7.76902C444.744 7.30533 444.591 7.61446 444.973 7.22805L445.05 7.15077C445.1 7.09981 445.136 7.06095 445.161 7.03153C445.192 6.99584 445.207 6.97405 445.213 6.96138C445.229 6.93217 445.199 6.95155 445.213 6.96138C445.226 6.97043 445.276 6.97138 445.432 6.91893L446.605 6.4803L447.498 6.14611C448.416 5.7597 448.493 6.06883 449.258 5.91426L449.487 5.83698C449.487 5.7597 449.64 5.7597 449.717 5.7597H449.87C451.247 5.83698 452.624 5.83698 453.695 6.30067C454.001 6.45524 454.384 6.53252 454.231 7.07349C453.925 7.76902 454.078 7.22805 453.925 7.38262C453.619 7.61446 453.772 7.38262 453.695 7.92359C453.695 8.23271 453.695 8.07815 453.542 8.46456C453.542 8.46456 453.389 8.61912 453.389 8.6964L453.007 9.31466C452.701 9.62379 452.93 10.1648 452.318 11.324L451.094 14.1834L451.017 14.2607L450.741 14.9262L450.023 16.6564C449.946 16.7337 449.946 16.811 449.946 16.811C449.87 16.9655 449.946 16.8883 449.793 17.352L449.334 17.8929C449.263 17.9645 449.221 17.9905 449.197 17.9949C449.199 18.0325 449.196 18.0968 449.181 18.2021C449.028 19.9023 449.258 18.743 448.875 19.3613C448.646 19.6704 448.799 19.284 448.722 19.7477C448.493 20.6751 447.804 21.1388 447.728 21.6024C447.575 22.3753 447.804 21.6797 447.422 22.4525L447.192 23.0708L446.733 24.3073C446.733 24.3846 446.656 24.4619 446.656 24.4619C446.656 24.5392 446.58 24.6164 446.58 24.6164L446.121 26.0848C445.815 26.703 445.891 25.9302 445.738 26.703C445.662 27.3986 445.815 26.7803 445.432 27.5531L445.279 27.9395C445.279 28.0168 445.203 28.0941 445.203 28.0941L444.897 28.7124C444.82 28.7896 444.82 28.8669 444.82 28.8669L443.902 31.1854C443.902 31.2627 443.826 31.3399 443.826 31.3399L443.443 32.5765C443.366 32.6537 443.366 32.731 443.366 32.731C443.213 33.1174 442.907 33.1947 442.831 33.6584L441.148 37.7543C441.148 37.8316 441.071 37.9089 441.071 37.9089L439.805 40.9649L437.934 45.4825C437.781 46.1007 438.087 45.3279 437.858 45.9462L437.399 46.7963L437.322 46.8736C437.169 47.1054 437.016 46.9508 436.94 47.26C436.787 47.6464 437.093 48.0328 436.71 48.4192C436.622 48.5084 436.549 48.5779 436.491 48.6309C436.487 48.6375 436.484 48.6442 436.481 48.651C436.481 48.651 436.404 48.9602 436.404 49.0375L435.409 51.2786C435.256 52.2833 435.027 51.8969 434.95 52.2833V52.6697C434.874 52.9788 435.027 52.6697 434.644 53.2107Z" fill="#0072B1"/>
<path d="M467.238 27.6304L464.636 27.0895L464.407 27.0122L461.193 33.6584C461.193 34.4312 460.658 34.6631 460.581 35.1267L459.51 38.0635L459.434 38.1407L457.98 41.6957C457.597 42.3139 457.903 41.4638 457.674 42.1594L456.373 45.0961C456.278 45.1991 456.202 45.2758 456.143 45.3311C456.068 45.5625 456.143 45.871 455.991 46.3326L454.307 50.1194C454.078 50.5058 454.078 51.1241 453.619 51.8196C453.16 52.5924 453.083 51.2786 453.16 52.8243C453.16 53.2107 453.313 53.3652 452.854 53.5971L450.023 53.8289C449.64 53.9062 449.564 53.8289 449.181 53.7516H446.503C445.738 53.8289 445.203 53.5971 444.438 53.7516H442.448C440.918 54.0608 441.071 53.9062 441.454 52.747L441.836 51.5877C441.913 51.5105 441.913 51.4332 441.913 51.4332C442.754 49.5784 442.142 52.0514 442.448 50.8149C442.448 50.6604 442.372 50.1967 442.448 49.8876C442.678 49.4239 442.754 49.8103 442.984 48.8829L444.497 45.8266C444.519 45.7634 444.549 45.6764 444.591 45.5598C444.744 45.0961 444.744 44.5551 445.126 44.1687L445.356 44.0141C445.432 43.9369 445.432 43.9369 445.432 43.6277C445.432 42.3139 445.738 43.0095 445.891 42.1594L447.039 39.2227C447.498 38.6817 447.268 39.5318 447.422 38.6817C447.498 37.9862 447.345 38.5271 447.728 37.7543L450.252 31.7264C450.482 31.1081 450.099 31.4172 450.405 30.8763C450.788 30.1807 450.711 30.6444 450.711 30.6444L452.701 25.7757C452.701 25.6984 452.777 25.6211 452.777 25.6211L452.854 25.5438L453.083 25.312C453.173 25.2218 453.245 25.1536 453.303 25.1037C453.306 25.096 453.309 25.0881 453.313 25.0801C453.389 24.9256 453.313 24.6164 453.313 24.3073C453.466 23.1481 453.619 23.9209 453.772 23.6891L454.843 20.9842C454.996 19.9795 455.226 20.3659 455.302 19.9795C455.455 19.2067 456.067 18.6657 456.297 17.5838C456.373 17.5065 456.297 17.2747 456.373 17.1201L456.832 16.1154C456.909 15.729 456.756 16.1154 457.062 15.5745C457.062 15.4972 457.138 15.4199 457.138 15.4199L457.827 13.6424C457.903 13.4106 457.75 13.6424 458.056 13.3333L460.352 8.00087C460.428 7.84631 460.581 7.61446 460.581 7.61446C460.734 7.22805 460.658 7.38262 460.734 7.07349L461.423 5.37329L461.499 5.29601L461.729 5.06416L463.565 2.74571C463.871 2.59115 463.336 2.97756 464.024 2.43659L465.707 1.35464L465.784 1.27736C466.013 1.1228 466.166 0.813671 466.932 0.736389C467.697 0.659108 467.697 0.349981 468.768 0.272699C469.686 0.195417 470.528 -0.190991 471.599 0.118136C472.134 0.272699 471.446 0.195417 472.058 0.272699C472.746 0.427262 473.817 0.427262 474.506 0.813671L474.583 0.890953C475.577 1.66377 475.195 1.04552 476.036 1.50921L478.102 2.35931C478.944 2.59115 478.485 2.35931 479.25 2.823L483.993 4.9096C484.07 4.9096 484.146 4.98688 484.146 4.98688C484.758 5.29601 485.753 5.45057 486.442 5.99155L488.048 6.68708C488.125 6.76436 488.201 6.76436 488.201 6.76436L491.262 8.07815C491.644 8.23271 491.568 8.23271 491.797 8.31L492.409 8.46456L493.404 8.92825L493.481 9.00553L499.984 11.7104C500.06 11.7104 500.213 11.7877 500.29 11.7877L501.973 12.5605C502.05 12.6378 502.126 12.6378 502.126 12.6378L502.585 12.7923C502.662 12.7923 502.738 12.8696 502.738 12.8696C502.815 12.8696 502.891 12.9469 502.891 12.9469L511.92 16.8883C512.914 17.5838 514.291 17.7384 515.516 18.3566L517.122 19.2067C517.199 19.284 517.275 19.284 517.275 19.284L518.652 19.7477C518.729 19.7477 518.805 19.825 518.805 19.825L520.795 20.8296C520.795 20.8296 521.024 20.8296 521.177 20.9069L523.013 22.0661L523.09 22.1434L524.697 23.6891L524.773 23.7663L525.615 25.1574C526.15 25.7757 526.074 26.1621 526.533 27.0895C527.222 28.4805 526.839 28.9442 527.145 30.3353V31.1081C526.992 31.9582 526.915 34.5858 526.303 35.204L525.462 37.0588C525.436 37.0899 525.416 37.1154 525.4 37.1361C525.192 37.4038 525.722 36.8684 525.4 37.1361C525.375 37.1568 525.345 37.1823 525.309 37.2134C524.926 37.5225 525.079 36.9815 525.003 37.677L523.167 42.0048C523.167 42.0821 523.09 42.1594 523.09 42.1594C523.09 42.2367 523.013 42.3139 523.013 42.3139C523.013 42.3912 522.937 42.4685 522.937 42.4685L521.024 46.5644C520.871 47.3373 521.177 46.719 520.718 47.5691L520.489 48.0328L520.412 48.1101L520.259 48.2646C520.247 48.2853 520.236 48.3029 520.226 48.3178C520.244 48.3447 520.259 48.417 520.259 48.5738C520.259 49.733 519.724 49.6557 519.647 50.1967L519.264 51.2013C519.081 51.6187 519.2 51.4238 519.243 51.3515C519.257 51.3264 519.262 51.3161 519.243 51.3515C519.224 51.3839 519.185 51.4548 519.111 51.5877C518.958 51.9742 519.035 51.7423 518.882 52.0514L518.27 53.2879L518.193 53.3652L516.434 53.9062H516.281H516.128H515.975L514.903 53.9835H514.521L511.675 53.8907L509.777 53.8289C509.732 53.8318 509.684 53.8356 509.635 53.8402C508.37 53.9595 506.074 54.5956 507.252 52.4379L508.094 50.3512L508.171 50.274L509.318 47.4145C509.471 46.3326 509.854 47.4145 509.854 46.5644C509.854 46.4449 509.868 46.3994 509.877 46.3843C509.858 46.3927 509.794 46.3925 509.624 46.2553L508.018 45.2507C507.711 45.1734 507.788 45.2507 507.558 45.0961L506.028 43.7823C505.569 43.3959 505.952 43.6277 505.493 43.3959L502.815 40.5365C502.159 39.7271 502.683 40.3189 502.536 39.7103C502.482 39.7123 502.344 39.5565 502.05 39.0681L501.888 38.7681L501.591 38.218C500.749 36.8269 500.749 35.9768 500.213 34.9722C500.213 34.8949 500.137 34.8176 500.137 34.8176C499.678 33.8902 500.137 32.6537 499.907 31.6491C499.525 29.7943 499.907 30.799 499.984 29.4852C500.213 25.9302 500.366 28.326 500.366 27.1667L500.979 24.771C500.979 24.5392 500.826 24.8483 501.055 24.3846C500.29 24.3073 500.06 23.9982 499.448 23.6118L498.683 23.4572C498.607 23.4572 498.53 23.3799 498.53 23.3799L496.388 22.5298L496.311 22.4525L494.628 21.6024C494.322 21.5252 494.169 21.5252 493.557 21.2933C493.481 21.216 493.328 21.1388 493.251 21.1388L492.869 20.9842L492.792 20.9069L491.95 20.4432C491.874 20.3659 491.797 20.3659 491.797 20.3659L488.201 18.8203C487.666 18.5885 488.354 18.8203 487.742 18.5885C487.207 18.3566 487.895 18.6657 487.207 18.4339C486.365 18.2021 486.824 18.3566 486.136 17.8929L485.371 18.9749C485.371 19.0522 485.294 19.1294 485.294 19.1294C484.988 19.6704 484.911 19.284 484.758 20.0568L483.458 21.9889L483.381 22.0661L482.922 22.4525L482.846 22.5298L482.616 22.9162C482.081 23.6891 481.851 23.6118 481.315 24.0755L478.714 25.8529C478.255 26.1621 478.408 26.3166 477.413 26.703L474.506 27.5531H474.43C474.257 27.5531 474.156 27.5439 474.103 27.5301C474.086 27.5374 474.067 27.5451 474.047 27.5531L472.593 27.9395C472.287 27.9395 472.058 27.8623 471.752 27.9395L470.145 28.0941C469.533 28.0941 468.079 28.0941 467.314 27.7077L467.238 27.6304Z" fill="#0072B1"/>
<path d="M508.477 45.6371C508.477 45.6371 508.553 45.6371 508.553 45.7143L508.477 45.6371Z" fill="#0072B1"/>
<path d="M493.098 21.2933C493.098 21.2933 493.175 21.2933 493.175 21.3706L493.098 21.2933Z" fill="#0072B1"/>
<path d="M492.639 21.2933C492.639 21.2933 492.715 21.2933 492.715 21.3706L492.639 21.2933Z" fill="#0072B1"/>
<path d="M519.132 95.898C517.157 95.9354 515.514 95.6936 513.484 95.6003C511.455 95.5072 509.769 95.3275 507.715 95.2235C503.455 95.0073 487.862 93.569 484.821 94.4789C480.792 95.6849 475.692 99.4228 471.677 101.355C470.441 101.893 467.001 103.816 465.964 104.478C464.311 105.535 463.381 105.528 462.866 107.344C462.753 107.74 462.846 107.526 462.736 107.948C462.562 108.622 462.692 108.142 462.542 108.564C464.006 111.651 465.201 111.927 468.094 110.757C470.272 109.876 472.912 109.184 475.153 108.294C477.639 107.34 480.487 106.189 482.689 105.937C486.157 109.687 479.622 110.137 476.471 111.614C475.492 111.597 469.422 114.067 467.877 114.492C465.073 115.263 462.23 114.663 460.738 112.226C459.271 111.256 460.674 110.753 458.84 110.94C453.425 111.857 442.363 112.955 436.23 113.696C434.642 113.888 431.882 113.877 430.721 115.297C429.676 116.578 429.291 118.525 430.661 120.063C431.919 121.477 440.341 122.535 443.217 122.953C448.15 123.669 468.736 127.286 471.133 127.403C474.282 127.557 480.559 126.04 482.321 123.742C485.27 122.027 488.537 119.459 491.31 117.536C498.069 112.847 502.381 108.055 510.156 109.869C510.844 110.029 512.744 110.527 514.557 111.053M397.715 112.023C402.305 112.308 407.028 112.681 411.597 112.836C425.223 113.296 418.395 113.24 430.322 107.567C432.325 106.617 433.593 105.71 435.409 104.762C437.301 103.774 437.68 102.899 437.252 101.067C435.863 98.2709 432.058 100.794 427.679 101.994L422.31 104.098C421.794 103.757 421.541 103.517 421.05 103.13C421.281 100.687 424.077 100.503 426.591 99.6993C428.118 98.9971 433.009 97.364 434.312 97.1435C436.508 96.772 438.496 97.9636 439.71 100.271C443.468 99.0066 458.214 98.7548 462.439 96.7508L462.743 96.0428C463.026 95.335 462.909 95.863 463.016 95.3203L463.017 95.3199C463.322 93.7625 462.363 92.405 460.849 92.058C455.879 90.9192 439.658 88.744 433.842 87.6908C430.216 87.0341 424.745 86.9802 422.047 90.1184C417.039 93.1511 412.641 97.0815 407.422 100.073C403.639 102.241 396.456 100.224 394.058 98.9985" stroke="#F4F4F4" stroke-width="2"/>
<path d="M14.4893 137.621C12.4884 137.621 10.8669 137 9.62501 135.758C8.45207 134.516 7.8656 132.895 7.8656 130.894V70.3494C7.8656 68.3485 8.41757 66.7961 9.52151 65.6922C10.6945 64.5882 12.2814 64.0362 14.2823 64.0362H50.6089C54.8177 64.0362 56.9221 65.8301 56.9221 69.418C56.9221 72.9368 54.8177 74.6962 50.6089 74.6962H21.0094V94.5672H48.539C52.7478 94.5672 54.8522 96.3611 54.8522 99.9489C54.8522 103.468 52.7478 105.227 48.539 105.227H21.0094V130.894C21.0094 132.895 20.423 134.516 19.25 135.758C18.0771 137 16.4902 137.621 14.4893 137.621ZM104.285 85.3561C106.286 85.3561 107.873 85.9081 109.046 87.0121C110.219 88.116 110.806 89.5994 110.806 91.4623V131.618C110.806 133.412 110.185 134.861 108.943 135.965C107.77 137.069 106.217 137.621 104.285 137.621C102.423 137.621 100.939 137.103 99.8352 136.069C98.7312 135.034 98.1793 133.619 98.1793 131.825V129.238C96.5924 131.998 94.4535 134.137 91.7626 135.655C89.0717 137.103 86.0359 137.828 82.6551 137.828C70.2357 137.828 64.026 130.859 64.026 116.922V91.4623C64.026 89.5994 64.6125 88.116 65.7854 87.0121C66.9584 85.9081 68.5108 85.3561 70.4427 85.3561C72.4436 85.3561 74.0305 85.9081 75.2034 87.0121C76.3764 88.116 76.9629 89.5994 76.9629 91.4623V117.026C76.9629 120.613 77.6873 123.27 79.1362 124.995C80.5852 126.72 82.8621 127.582 85.9669 127.582C89.5547 127.582 92.4181 126.409 94.557 124.063C96.7648 121.648 97.8688 118.474 97.8688 114.542V91.4623C97.8688 89.5994 98.4553 88.116 99.6282 87.0121C100.801 85.9081 102.354 85.3561 104.285 85.3561ZM153.663 85.1492C159.735 85.1492 164.254 86.8741 167.221 90.3239C170.188 93.7737 171.671 98.9829 171.671 105.952V131.411C171.671 133.343 171.085 134.861 169.912 135.965C168.808 137.069 167.255 137.621 165.254 137.621C163.253 137.621 161.667 137.069 160.494 135.965C159.321 134.861 158.734 133.343 158.734 131.411V106.676C158.734 102.743 157.975 99.8799 156.457 98.086C155.008 96.2921 152.697 95.3951 149.523 95.3951C145.797 95.3951 142.796 96.5681 140.519 98.914C138.311 101.26 137.207 104.399 137.207 108.332V131.411C137.207 133.343 136.621 134.861 135.448 135.965C134.275 137.069 132.688 137.621 130.687 137.621C128.686 137.621 127.099 137.069 125.926 135.965C124.822 134.861 124.27 133.343 124.27 131.411V91.3588C124.27 89.5649 124.857 88.116 126.03 87.0121C127.203 85.9081 128.79 85.3561 130.791 85.3561C132.585 85.3561 134.033 85.9081 135.137 87.0121C136.31 88.047 136.897 89.4269 136.897 91.1519V93.9462C138.622 91.1174 140.933 88.944 143.831 87.426C146.729 85.9081 150.006 85.1492 153.663 85.1492ZM227.037 63.5188C228.969 63.5188 230.555 64.0707 231.797 65.1747C233.039 66.2786 233.66 67.7276 233.66 69.5215V131.411C233.66 133.274 233.074 134.758 231.901 135.862C230.728 136.966 229.176 137.517 227.244 137.517C225.312 137.517 223.759 136.966 222.586 135.862C221.413 134.758 220.827 133.274 220.827 131.411V128.824C219.309 131.653 217.101 133.861 214.203 135.448C211.374 137.034 208.132 137.828 204.475 137.828C200.128 137.828 196.23 136.724 192.78 134.516C189.399 132.308 186.743 129.203 184.811 125.202C182.948 121.131 182.016 116.474 182.016 111.23C182.016 105.986 182.948 101.398 184.811 97.465C186.743 93.5322 189.399 90.4964 192.78 88.3575C196.161 86.2186 200.059 85.1492 204.475 85.1492C208.132 85.1492 211.374 85.9081 214.203 87.426C217.032 88.944 219.206 91.0829 220.723 93.8427V69.3145C220.723 67.5896 221.275 66.2096 222.379 65.1747C223.552 64.0707 225.105 63.5188 227.037 63.5188ZM207.89 127.789C212.03 127.789 215.204 126.375 217.412 123.546C219.689 120.717 220.827 116.681 220.827 111.437C220.827 106.193 219.689 102.191 217.412 99.4314C215.204 96.6026 212.064 95.1881 207.994 95.1881C203.854 95.1881 200.645 96.5681 198.369 99.3279C196.092 102.088 194.953 106.055 194.953 111.23C194.953 116.474 196.092 120.544 198.369 123.442C200.645 126.34 203.819 127.789 207.89 127.789ZM312.894 63.5188C314.826 63.5188 316.379 64.1397 317.552 65.3817C318.725 66.5546 319.311 68.1415 319.311 70.1424V131.411C319.311 133.343 318.759 134.861 317.655 135.965C316.551 137.069 315.102 137.621 313.308 137.621C311.514 137.621 310.1 137.069 309.065 135.965C308.03 134.861 307.513 133.343 307.513 131.411V88.7715L289.919 122.097C289.091 123.615 288.194 124.753 287.228 125.512C286.262 126.202 285.123 126.547 283.812 126.547C282.501 126.547 281.363 126.202 280.397 125.512C279.431 124.822 278.534 123.684 277.706 122.097L260.009 89.2889V131.411C260.009 133.274 259.457 134.792 258.353 135.965C257.318 137.069 255.903 137.621 254.109 137.621C252.315 137.621 250.901 137.069 249.866 135.965C248.831 134.861 248.314 133.343 248.314 131.411V70.1424C248.314 68.1415 248.866 66.5546 249.97 65.3817C251.143 64.1397 252.695 63.5188 254.627 63.5188C257.318 63.5188 259.422 65.0022 260.94 67.969L283.916 111.747L306.788 67.969C308.306 65.0022 310.341 63.5188 312.894 63.5188ZM374.041 123.132C375.214 123.132 376.146 123.58 376.835 124.477C377.594 125.374 377.974 126.582 377.974 128.099C377.974 130.238 376.698 132.032 374.145 133.481C371.799 134.792 369.142 135.862 366.176 136.69C363.209 137.448 360.38 137.828 357.689 137.828C349.547 137.828 343.096 135.482 338.335 130.79C333.575 126.099 331.194 119.682 331.194 111.54C331.194 106.366 332.229 101.777 334.299 97.7755C336.369 93.7737 339.267 90.6689 342.993 88.461C346.788 86.2531 351.065 85.1492 355.826 85.1492C360.38 85.1492 364.347 86.1496 367.728 88.1505C371.109 90.1514 373.731 92.9803 375.594 96.6371C377.456 100.294 378.388 104.606 378.388 109.574C378.388 112.541 377.077 114.024 374.455 114.024H343.924C344.338 118.785 345.684 122.304 347.96 124.581C350.237 126.789 353.549 127.892 357.896 127.892C360.104 127.892 362.036 127.616 363.692 127.065C365.417 126.513 367.348 125.754 369.487 124.788C371.557 123.684 373.075 123.132 374.041 123.132ZM356.137 94.2567C352.618 94.2567 349.789 95.3606 347.65 97.5685C345.58 99.7764 344.338 102.95 343.924 107.09H367.314C367.176 102.881 366.141 99.7074 364.209 97.5685C362.277 95.3606 359.586 94.2567 356.137 94.2567Z" fill="#0072B1"/>
</svg>
