<svg width="241" height="62" viewBox="0 0 241 62" fill="none" xmlns="http://www.w3.org/2000/svg">
<g clip-path="url(#clip0)">
<path fill-rule="evenodd" clip-rule="evenodd" d="M132.947 4.60514C118.466 -8.16897 99.7771 8.09126 105.283 25.3763C106.51 29.2307 109.448 33.5882 113.159 38.0169C114.043 37.6153 114.721 37.1595 115.602 36.688C116.483 36.2166 117.193 35.7795 118.082 35.2982C119.926 34.2996 126.54 30.3555 128.08 30.118C130.121 29.8033 133.169 30.3921 135.357 30.4045C136.018 30.3828 137.948 30.513 138.548 30.5891C139.503 30.7106 139.915 30.511 140.525 31.2124C140.658 31.3655 140.572 31.2896 140.709 31.4546C140.929 31.7186 140.77 31.5318 140.925 31.6886C140.925 33.3768 140.453 33.7533 138.924 33.8433C137.773 33.9112 136.456 34.1614 135.275 34.2387C133.971 34.3389 132.466 34.4281 131.436 34.7818C130.687 37.1904 133.68 36.0075 135.389 35.9996C135.819 35.7848 139.032 35.6024 139.806 35.4649C141.212 35.2153 142.347 34.3451 142.496 32.9415C142.942 32.1974 142.214 32.27 143.067 31.9652C145.662 31.2282 150.799 29.3759 153.676 28.4082C154.421 28.1576 155.642 27.568 156.456 27.9566C157.189 28.3067 157.77 29.0948 157.486 30.0714C157.225 30.9689 153.712 33.2246 152.524 34.0203C150.487 35.3847 142.117 41.3583 141.078 41.9181C139.714 42.6536 136.61 43.3055 135.345 42.6525C133.677 42.5113 131.687 42.057 130.053 41.7855C126.068 41.1236 123.147 39.8974 120.08 42.3531C119.809 42.5705 119.071 43.195 118.377 43.8138C124.964 50.7143 132.448 57.3283 137.241 62.0001C145.631 56.0584 166.269 34.4755 169.314 25.5183C170.011 23.4681 170.358 21.4513 170.408 19.5054C168.431 20.6049 166.415 21.7715 164.421 22.8079C158.474 25.8987 161.49 24.428 155.007 24.4208C153.918 24.4208 153.165 24.2842 152.16 24.2456C151.113 24.2054 150.761 23.8951 150.565 22.9866C150.593 21.4439 152.812 21.7647 155.007 21.373L157.831 21.1754C157.988 20.914 158.05 20.7534 158.186 20.4766C157.569 19.4347 156.29 19.9446 155.006 20.1181C154.181 20.128 151.668 20.4346 151.044 20.6121C149.992 20.9111 149.361 21.8641 149.307 23.1512C147.375 23.3825 140.781 26.3928 138.485 26.3928L138.202 26.141C137.927 25.8849 138.09 26.096 137.928 25.8762C137.465 25.2457 137.605 24.4366 138.203 23.9611C140.168 22.4002 146.906 17.9944 149.264 16.2927C150.734 15.2316 153.149 14.049 155.006 14.8788C157.866 15.1724 160.643 15.9957 163.588 16.2261C165.802 16.3994 168.693 13.7852 169.372 12.8031C166.092 3.28946 155.684 -2.67828 147.111 1.19861C143.411 2.87157 139.451 6.08347 137.76 8.68172C136.186 8.06174 134.388 5.87646 132.947 4.60527L132.947 4.60514Z" fill="white"/>
<path fill-rule="evenodd" clip-rule="evenodd" d="M128.08 30.1181C126.54 30.3556 119.926 34.2997 118.082 35.2983C117.193 35.7796 116.483 36.2167 115.602 36.6881C114.721 37.1596 114.043 37.6154 113.159 38.017C114.777 39.9477 116.542 41.8919 118.377 43.8139C119.071 43.195 119.808 42.5706 120.08 42.3532C123.147 39.8974 126.068 41.1237 130.053 41.7855C131.687 42.057 133.676 42.5113 135.345 42.6525C136.61 43.3056 139.713 42.6536 141.078 41.9181C142.117 41.3584 150.487 35.3847 152.524 34.0203C153.712 33.2247 157.225 30.969 157.486 30.0715C157.77 29.0948 157.189 28.3067 156.456 27.9566C155.642 27.568 154.421 28.1577 153.676 28.4083C150.799 29.3759 145.662 31.2283 143.067 31.9652C142.214 32.27 142.942 32.1975 142.496 32.9415C142.347 34.3451 141.212 35.2153 139.806 35.4649C139.032 35.6024 135.819 35.7848 135.388 35.9996C133.68 36.0075 130.687 37.1904 131.436 34.7819C132.466 34.4281 133.971 34.339 135.275 34.2388C136.456 34.1615 137.773 33.9113 138.924 33.8434C140.453 33.7533 140.925 33.3768 140.925 31.6886C140.77 31.5319 140.929 31.7187 140.709 31.4547C140.572 31.2897 140.658 31.3655 140.525 31.2124C139.914 30.511 139.503 30.7106 138.548 30.5892C137.948 30.513 136.018 30.3829 135.357 30.4045C133.169 30.3921 130.121 29.8033 128.08 30.1181L128.08 30.1181Z" fill="#0C9B45"/>
<path fill-rule="evenodd" clip-rule="evenodd" d="M155.007 14.8787C153.149 14.0489 150.734 15.2316 149.264 16.2926C146.906 17.9944 140.168 22.4002 138.203 23.961C137.605 24.4365 137.465 25.2456 137.928 25.8761C138.09 26.0959 137.927 25.8849 138.202 26.1409L138.485 26.3927C140.781 26.3927 147.375 23.3824 149.307 23.1512C149.361 21.864 149.992 20.9111 151.044 20.612C151.668 20.4345 154.181 20.1279 155.007 20.118C156.29 19.9445 157.569 19.4346 158.186 20.4765C158.05 20.7532 157.988 20.9139 157.831 21.1754L155.007 21.3729C152.812 21.7645 150.593 21.4437 150.565 22.9865C150.761 23.895 151.113 24.2052 152.16 24.2455C153.165 24.2842 153.918 24.4207 155.007 24.4207C161.49 24.428 158.474 25.8987 164.421 22.8078C166.415 21.7714 168.432 20.6048 170.408 19.5054C170.468 17.145 170.091 14.8888 169.372 12.803C168.693 13.785 165.803 16.3993 163.588 16.2259C160.644 15.9955 157.866 15.1722 155.007 14.8787L155.007 14.8787Z" fill="#0C9B45"/>
<path d="M4.12983 49.1872V26.3508H0V21.0984H4.12983C4.12983 14.2475 8.07112 10.822 15.9536 10.822V16.8166C15.0107 16.8166 14.247 16.8832 13.6624 17.0164C13.0778 17.1496 12.6157 17.3875 12.2763 17.73C11.9368 18.0725 11.7011 18.5197 11.5692 19.0716C11.4372 19.6235 11.3712 20.2991 11.3712 21.0983H16.1233V26.3508H11.3712V49.1871H4.12983V49.1872ZM36.0369 49.1872V45.2479C34.1511 48.3689 31.2659 49.9294 27.3812 49.9294C25.9858 49.9294 24.7129 49.682 23.5626 49.1872C22.4122 48.6924 21.4222 47.9883 20.5925 47.0749C19.7628 46.1614 19.1122 45.0767 18.6407 43.8207C18.1693 42.5647 17.9336 41.1564 17.9336 39.5959V21.0985H25.288V38.4541C25.288 41.9557 26.8532 43.7065 29.9836 43.7065C31.8693 43.7065 33.2932 43.1071 34.2549 41.9081C35.2166 40.7093 35.6975 39.1773 35.6975 37.3123V21.0985H42.9954V49.1873H36.0369L36.0369 49.1872ZM64.0404 49.1872V32.1741C64.0404 30.0046 63.6821 28.5393 62.9655 27.778C62.249 27.0168 61.0232 26.6362 59.2883 26.6362C55.4791 26.6362 53.5744 28.7867 53.5744 33.0875V49.1872H46.22V21.0984H53.235V25.209C54.1024 23.6104 55.2528 22.402 56.6859 21.5837C58.1191 20.7654 59.9672 20.3562 62.23 20.3562C63.5501 20.3562 64.7758 20.556 65.9072 20.9557C67.0387 21.3553 68.0099 21.9547 68.8207 22.754C69.6316 23.5533 70.2728 24.5334 70.7442 25.6943C71.2156 26.8551 71.4513 28.1967 71.4513 29.7191V49.1871H64.0403L64.0404 49.1872ZM87.8575 43.8778C89.6302 43.8778 91.1105 43.1356 92.2985 41.6512C93.4865 40.1669 94.0805 38.2258 94.0805 35.8279C94.0805 29.7382 92.0251 26.6933 87.9141 26.6933C83.69 26.6933 81.578 29.5859 81.578 35.3712C81.578 37.8832 82.1626 39.929 83.3317 41.5085C84.5009 43.088 86.0095 43.8778 87.8575 43.8778ZM93.9674 49.1872L93.9108 45.7618C92.2137 48.5402 89.6302 49.9294 86.1604 49.9294C84.3878 49.9294 82.766 49.5868 81.2951 48.9018C79.8242 48.2167 78.5608 47.2271 77.5047 45.9331C76.4487 44.639 75.619 43.0595 75.0155 41.1945C74.4121 39.3295 74.1104 37.2171 74.1104 34.8573C74.1104 32.726 74.3649 30.7754 74.8741 29.0055C75.3833 27.2357 76.1281 25.7037 77.1088 24.4097C78.0893 23.1157 79.2868 22.1166 80.7011 21.4124C82.1155 20.7083 83.7278 20.3563 85.5381 20.3563C88.9702 20.3563 91.7234 21.8217 93.7977 24.7523V10.8221H101.039V49.1873H93.9675L93.9674 49.1872ZM205.076 49.1872V32.1741C205.076 30.4613 204.68 29.0721 203.888 28.0064C203.096 26.9407 202.04 26.4079 200.72 26.4079C199.362 26.4079 198.24 26.9788 197.354 28.1206C196.468 29.2624 196.025 30.6897 196.025 32.4024V49.1872H188.67V32.2883C188.67 31.1465 188.595 30.214 188.444 29.4908C188.293 28.7677 188.038 28.1967 187.68 27.7781C187.322 27.3594 186.86 27.0645 186.294 26.8932C185.728 26.7219 185.049 26.6363 184.257 26.6363C181.278 26.6363 179.788 28.4632 179.788 32.1171V49.1873H172.434V21.0985H179.336V25.209C180.279 23.344 181.41 22.069 182.73 21.3839C184.05 20.6988 185.634 20.3563 187.482 20.3563C188.425 20.3563 189.264 20.4324 190 20.5847C190.735 20.7369 191.395 20.9938 191.98 21.3554C192.564 21.717 193.12 22.1833 193.648 22.7542C194.176 23.3251 194.705 24.0102 195.233 24.8094C195.987 23.2489 196.986 22.1167 198.231 21.4125C199.475 20.7084 200.984 20.3563 202.757 20.3563C204.152 20.3563 205.434 20.5942 206.604 21.0699C207.773 21.5457 208.772 22.2117 209.602 23.0681C210.432 23.9245 211.082 24.9236 211.554 26.0654C212.025 27.2072 212.261 28.4252 212.261 29.7192V49.1872H205.076H205.076ZM233.419 32.4024C233.382 31.3748 233.202 30.4709 232.882 29.6906C232.561 28.9104 232.137 28.2633 231.609 27.7495C231.081 27.2357 230.477 26.8551 229.799 26.6077C229.12 26.3603 228.422 26.2366 227.705 26.2366C226.235 26.2366 224.962 26.779 223.887 27.8637C222.812 28.9484 222.199 30.4613 222.048 32.4024H233.419L233.419 32.4024ZM221.822 37.0839C221.935 39.2153 222.548 40.909 223.66 42.165C224.773 43.421 226.235 44.049 228.045 44.049C229.252 44.049 230.317 43.773 231.241 43.2211C232.165 42.6693 232.759 41.8985 233.023 40.909H240.604C239.737 43.8016 238.228 46.0281 236.078 47.5886C233.928 49.1491 231.364 49.9294 228.384 49.9294C219.106 49.9294 214.467 44.8292 214.467 34.629C214.467 32.4595 214.769 30.4993 215.373 28.7486C215.976 26.9978 216.853 25.4944 218.003 24.2384C219.153 22.9824 220.558 22.0213 222.218 21.3553C223.877 20.6892 225.782 20.3562 227.932 20.3562C232.231 20.3562 235.484 21.7454 237.69 24.5239C239.897 27.3023 241 31.489 241 37.0839H221.822Z" fill="white"/>
<path d="M4.12983 49.1872V26.3508H0V21.0984H4.12983C4.12983 14.2475 8.07112 10.822 15.9536 10.822V16.8166C15.0107 16.8166 14.247 16.8832 13.6624 17.0164C13.0778 17.1496 12.6157 17.3875 12.2763 17.73C11.9368 18.0725 11.7011 18.5197 11.5692 19.0716C11.4372 19.6235 11.3712 20.2991 11.3712 21.0983H16.1233V26.3508H11.3712V49.1871H4.12983V49.1872ZM36.0369 49.1872V45.2479C34.1511 48.3689 31.2659 49.9294 27.3812 49.9294C25.9858 49.9294 24.7129 49.682 23.5626 49.1872C22.4122 48.6924 21.4222 47.9883 20.5925 47.0749C19.7628 46.1614 19.1122 45.0767 18.6407 43.8207C18.1693 42.5647 17.9336 41.1564 17.9336 39.5959V21.0985H25.288V38.4541C25.288 41.9557 26.8532 43.7065 29.9836 43.7065C31.8693 43.7065 33.2932 43.1071 34.2549 41.9081C35.2166 40.7093 35.6975 39.1773 35.6975 37.3123V21.0985H42.9954V49.1873H36.0369L36.0369 49.1872ZM64.0404 49.1872V32.1741C64.0404 30.0046 63.6821 28.5393 62.9655 27.778C62.249 27.0168 61.0232 26.6362 59.2883 26.6362C55.4791 26.6362 53.5744 28.7867 53.5744 33.0875V49.1872H46.22V21.0984H53.235V25.209C54.1024 23.6104 55.2528 22.402 56.6859 21.5837C58.1191 20.7654 59.9672 20.3562 62.23 20.3562C63.5501 20.3562 64.7758 20.556 65.9072 20.9557C67.0387 21.3553 68.0099 21.9547 68.8207 22.754C69.6316 23.5533 70.2728 24.5334 70.7442 25.6943C71.2156 26.8551 71.4513 28.1967 71.4513 29.7191V49.1871H64.0403L64.0404 49.1872ZM87.8575 43.8778C89.6302 43.8778 91.1105 43.1356 92.2985 41.6512C93.4865 40.1669 94.0805 38.2258 94.0805 35.8279C94.0805 29.7382 92.0251 26.6933 87.9141 26.6933C83.69 26.6933 81.578 29.5859 81.578 35.3712C81.578 37.8832 82.1626 39.929 83.3317 41.5085C84.5009 43.088 86.0095 43.8778 87.8575 43.8778ZM93.9674 49.1872L93.9108 45.7618C92.2137 48.5402 89.6302 49.9294 86.1604 49.9294C84.3878 49.9294 82.766 49.5868 81.2951 48.9018C79.8242 48.2167 78.5608 47.2271 77.5047 45.9331C76.4487 44.639 75.619 43.0595 75.0155 41.1945C74.4121 39.3295 74.1104 37.2171 74.1104 34.8573C74.1104 32.726 74.3649 30.7754 74.8741 29.0055C75.3833 27.2357 76.1281 25.7037 77.1088 24.4097C78.0893 23.1157 79.2868 22.1166 80.7011 21.4124C82.1155 20.7083 83.7278 20.3563 85.5381 20.3563C88.9702 20.3563 91.7234 21.8217 93.7977 24.7523V10.8221H101.039V49.1873H93.9675L93.9674 49.1872ZM205.076 49.1872V32.1741C205.076 30.4613 204.68 29.0721 203.888 28.0064C203.096 26.9407 202.04 26.4079 200.72 26.4079C199.362 26.4079 198.24 26.9788 197.354 28.1206C196.468 29.2624 196.025 30.6897 196.025 32.4024V49.1872H188.67V32.2883C188.67 31.1465 188.595 30.214 188.444 29.4908C188.293 28.7677 188.038 28.1967 187.68 27.7781C187.322 27.3594 186.86 27.0645 186.294 26.8932C185.728 26.7219 185.049 26.6363 184.257 26.6363C181.278 26.6363 179.788 28.4632 179.788 32.1171V49.1873H172.434V21.0985H179.336V25.209C180.279 23.344 181.41 22.069 182.73 21.3839C184.05 20.6988 185.634 20.3563 187.482 20.3563C188.425 20.3563 189.264 20.4324 190 20.5847C190.735 20.7369 191.395 20.9938 191.98 21.3554C192.564 21.717 193.12 22.1833 193.648 22.7542C194.176 23.3251 194.705 24.0102 195.233 24.8094C195.987 23.2489 196.986 22.1167 198.231 21.4125C199.475 20.7084 200.984 20.3563 202.757 20.3563C204.152 20.3563 205.434 20.5942 206.604 21.0699C207.773 21.5457 208.772 22.2117 209.602 23.0681C210.432 23.9245 211.082 24.9236 211.554 26.0654C212.025 27.2072 212.261 28.4252 212.261 29.7192V49.1872H205.076H205.076ZM233.419 32.4024C233.382 31.3748 233.202 30.4709 232.882 29.6906C232.561 28.9104 232.137 28.2633 231.609 27.7495C231.081 27.2357 230.477 26.8551 229.799 26.6077C229.12 26.3603 228.422 26.2366 227.705 26.2366C226.235 26.2366 224.962 26.779 223.887 27.8637C222.812 28.9484 222.199 30.4613 222.048 32.4024H233.419L233.419 32.4024ZM221.822 37.0839C221.935 39.2153 222.548 40.909 223.66 42.165C224.773 43.421 226.235 44.049 228.045 44.049C229.252 44.049 230.317 43.773 231.241 43.2211C232.165 42.6693 232.759 41.8985 233.023 40.909H240.604C239.737 43.8016 238.228 46.0281 236.078 47.5886C233.928 49.1491 231.364 49.9294 228.384 49.9294C219.106 49.9294 214.467 44.8292 214.467 34.629C214.467 32.4595 214.769 30.4993 215.373 28.7486C215.976 26.9978 216.853 25.4944 218.003 24.2384C219.153 22.9824 220.558 22.0213 222.218 21.3553C223.877 20.6892 225.782 20.3562 227.932 20.3562C232.231 20.3562 235.484 21.7454 237.69 24.5239C239.897 27.3023 241 31.489 241 37.0839H221.822Z" fill="white"/>
</g>
<defs>
<clipPath id="clip0">
<rect width="241" height="62" fill="white"/>
</clipPath>
</defs>
</svg>
