<svg width="181" height="189" viewBox="0 0 181 189" fill="none" xmlns="http://www.w3.org/2000/svg">
<path d="M30.7321 188.817C39.7565 188.469 48.6238 186.346 56.8274 182.569C65.0311 178.793 72.4104 173.437 78.5437 166.808C84.677 160.179 89.4441 152.407 92.5728 143.935C95.7014 135.463 97.1302 126.458 96.7776 117.434L96.0504 98.7096L114.775 97.9823C132.999 97.2745 150.195 89.3562 162.581 75.9692C174.967 62.5823 181.528 44.8234 180.82 26.5992C180.112 8.37503 172.194 -8.82154 158.807 -21.2075C145.42 -33.5934 127.661 -40.1541 109.437 -39.4463L90.7128 -38.7191L-46.7159 -33.3815L-41.3783 104.047L-40.651 122.771C-40.3026 131.796 -38.1797 140.663 -34.4034 148.867C-30.6271 157.07 -25.2715 164.45 -18.6425 170.583C-12.0135 176.716 -4.24107 181.483 4.23078 184.612C12.7026 187.741 21.7079 189.169 30.7321 188.817Z" fill="url(#paint0_linear)"/>
<defs>
<linearGradient id="paint0_linear" x1="-40.9999" y1="217" x2="200" y2="-32.9999" gradientUnits="userSpaceOnUse">
<stop stop-color="white"/>
<stop offset="1" stop-color="white" stop-opacity="0"/>
</linearGradient>
</defs>
</svg>
